#!OML:ASF X:\für Bonn\!DataBase\2005_08_10_Bjorn_Final\c3d\bjorn.ASF
:FULLY-SPECIFIED
:DEGREES
704
root -0.214095 1.59635 11.5323 -2068.5 -8.44519 191.331
lowerback -4.82678 -0.92891 -5.99099
upperback 3.16479 -0.716621 -4.68642
thorax 6.03922 -0.571958 -1.62231
lowerneck -17.8058 -5.65724 -0.104205
upperneck 8.49859 -8.50904 5.09402
head 5.68291 -3.89831 0.764482
rclavicle 3.18055e-015 -2.70347e-014
rhumerus -58.8073 43.5812 -105.739
rradius 111.082
rwrist -32.8639
rhand 8.1265 8.00766
rfingers 7.12502
rthumb 33.3473 -18.9186
lclavicle 3.18055e-015 -2.70347e-014
lhumerus -63.5698 -64.933 107.988
lradius 113.102
lwrist 36.1349
lhand 8.70801 -12.1741
lfingers 7.12502
lthumb 33.8999 734.632
rfemur -369.435 -21.9554 365.768
rtibia 29.1928
rfoot 7.38167 -10.2677
rtoes 12.9338
lfemur -10.9432 1.25953 -19.9014
ltibia 21.6353
lfoot 20.5668 -19.0438
ltoes -9.93522
705
root -0.217074 1.59527 11.5335 -2068.51 -8.36999 191.257
lowerback -4.81807 -0.897726 -5.87596
upperback 3.18285 -0.683616 -4.67537
thorax 6.05076 -0.551629 -1.67153
lowerneck -17.834 -5.66405 -0.147035
upperneck 8.46883 -8.51609 5.14853
head 5.68264 -3.89998 0.787005
rclavicle -2.8625e-014 -6.05299e-014
rhumerus -58.8573 43.644 -105.755
rradius 111.156
rwrist -32.9291
rhand 8.16618 7.99108
rfingers 7.12502
rthumb 33.385 -18.9271
lclavicle -2.8625e-014 -6.05299e-014
lhumerus -63.5744 -65.0111 107.99
lradius 113.144
lwrist 35.9892
lhand 8.66367 -12.145
lfingers 7.12502
lthumb 33.8578 734.67
rfemur -369.408 -21.9706 365.817
rtibia 29.1615
rfoot 7.28685 -10.3617
rtoes 12.8991
lfemur -10.9488 1.85616 -19.8297
ltibia 21.6907
lfoot 20.5728 -19.5115
ltoes -10.9107
706
root -0.219701 1.59382 11.5344 -2068.51 -8.30974 191.17
lowerback -4.82448 -0.864929 -5.79468
upperback 3.20426 -0.644854 -4.66211
thorax 6.07519 -0.530282 -1.69964
lowerneck -17.8454 -5.66241 -0.146296
upperneck 8.399 -8.51516 5.17116
head 5.66334 -3.90018 0.794833
rclavicle 4.77083e-015 2.78299e-014
rhumerus -58.8967 43.7078 -105.754
rradius 111.265
rwrist -33.0522
rhand 8.23782 7.88979
rfingers 7.12502
rthumb 33.4531 -19.0137
lclavicle 4.77083e-015 2.78299e-014
lhumerus -63.5526 -65.0938 107.964
lradius 113.18
lwrist 35.8081
lhand 8.58978 -12.1215
lfingers 7.12502
lthumb 33.7876 734.709
rfemur -369.394 -22.0366 365.847
rtibia 29.1367
rfoot 7.23853 -10.3946
rtoes 12.9431
lfemur -10.9662 2.3783 -19.7729
ltibia 21.7369
lfoot 20.533 -19.904
ltoes -11.9952
707
root -0.221258 1.59291 11.5355 -2068.52 -8.21897 191.087
lowerback -4.81842 -0.836018 -5.68236
upperback 3.22334 -0.614324 -4.64472
thorax 6.08971 -0.511244 -1.74105
lowerneck -17.8622 -5.65426 -0.141409
upperneck 8.35381 -8.50667 5.18846
head 5.65211 -3.89597 0.800614
rclavicle -2.06736e-014 -7.7526e-015
rhumerus -58.9513 43.771 -105.787
rradius 111.355
rwrist -33.1214
rhand 8.28103 7.83521
rfingers 7.12502
rthumb 33.4942 -19.0594
lclavicle -2.06736e-014 -7.7526e-015
lhumerus -63.5594 -65.1297 107.962
lradius 113.224
lwrist 35.6375
lhand 8.51605 -12.0507
lfingers 7.12502
lthumb 33.7175 734.795
rfemur -369.37 -22.009 365.924
rtibia 29.1104
rfoot 7.12344 -10.4875
rtoes 12.9045
lfemur -10.9699 2.79154 -19.6758
ltibia 21.7731
lfoot 20.4487 -20.2101
ltoes -12.9912
708
root -0.222074 1.59181 11.5364 -2068.54 -8.17288 191.013
lowerback -4.81411 -0.800685 -5.61772
upperback 3.25639 -0.571804 -4.6433
thorax 6.12068 -0.489191 -1.77217
lowerneck -17.8985 -5.66707 -0.165685
upperneck 8.31343 -8.52796 5.24853
head 5.6497 -3.9044 0.820401
rclavicle -4.77083e-015 -1.25234e-014
rhumerus -58.9792 43.8038 -105.78
rradius 111.453
rwrist -33.1968
rhand 8.32373 7.79255
rfingers 7.12502
rthumb 33.5348 -19.0933
lclavicle -4.77083e-015 -1.25234e-014
lhumerus -63.5253 -65.2379 107.922
lradius 113.249
lwrist 35.492
lhand 8.45794 -12.0226
lfingers 7.12502
lthumb 33.6623 734.835
rfemur -369.34 -22.0912 365.937
rtibia 29.0904
rfoot 7.04845 -10.5225
rtoes 12.9136
lfemur -10.9687 3.14306 -19.6233
ltibia 21.8019
lfoot 20.3465 -20.4118
ltoes -13.8605
709
root -0.222179 1.5906 11.5372 -2068.55 -8.0989 190.939
lowerback -4.79737 -0.776324 -5.53856
upperback 3.26557 -0.54659 -4.62715
thorax 6.11932 -0.473793 -1.79647
lowerneck -17.8953 -5.65797 -0.148895
upperneck 8.26586 -8.51854 5.2528
head 5.63336 -3.90069 0.820961
rclavicle -1.59028e-014 6.06293e-015
rhumerus -59.0418 43.8566 -105.82
rradius 111.548
rwrist -33.3078
rhand 8.40289 7.70362
rfingers 7.12502
rthumb 33.61 -19.1659
lclavicle -1.59028e-014 6.06293e-015
lhumerus -63.5542 -65.2924 107.94
lradius 113.279
lwrist 35.3525
lhand 8.40254 -11.9776
lfingers 7.12502
lthumb 33.6097 734.892
rfemur -369.323 -22.0671 366.002
rtibia 29.0739
rfoot 6.90091 -10.631
rtoes 12.9983
lfemur -10.9692 3.3739 -19.5278
ltibia 21.8113
lfoot 20.2178 -20.386
ltoes -14.3511
710
root -0.221678 1.58958 11.537 -2068.56 -8.03792 190.845
lowerback -4.77894 -0.732566 -5.47022
upperback 3.2826 -0.495585 -4.62221
thorax 6.12516 -0.446904 -1.82425
lowerneck -17.884 -5.66907 -0.168171
upperneck 8.19556 -8.53633 5.31132
head 5.61344 -3.90916 0.841612
rclavicle 1.74931e-014 -9.93923e-015
rhumerus -59.1106 43.8603 -105.847
rradius 111.649
rwrist -33.3605
rhand 8.44986 7.64202
rfingers 7.12502
rthumb 33.6546 -19.2177
lclavicle 1.74931e-014 -9.93923e-015
lhumerus -63.6083 -65.3797 107.98
lradius 113.3
lwrist 35.2229
lhand 8.31123 -11.9542
lfingers 7.12502
lthumb 33.5229 734.934
rfemur -369.306 -22.1593 366.034
rtibia 29.0706
rfoot 6.84232 -10.6194
rtoes 13.0047
lfemur -10.9459 3.46139 -19.435
ltibia 21.8019
lfoot 20.0335 -20.1144
ltoes -14.7763
711
root -0.220359 1.58856 11.5384 -2068.58 -7.97821 190.754
lowerback -4.75836 -0.702251 -5.41904
upperback 3.30141 -0.460899 -4.60761
thorax 6.13223 -0.428615 -1.83397
lowerneck -17.8788 -5.6583 -0.157745
upperneck 8.12779 -8.52416 5.3278
head 5.59117 -3.9042 0.847603
rclavicle -1.59028e-015 -6.4605e-015
rhumerus -59.1644 43.9163 -105.86
rradius 111.751
rwrist -33.4504
rhand 8.54885 7.5697
rfingers 7.12502
rthumb 33.7487 -19.2695
lclavicle -1.59028e-015 -6.4605e-015
lhumerus -63.6148 -65.4325 107.972
lradius 113.321
lwrist 35.1107
lhand 8.26132 -11.9292
lfingers 7.12502
lthumb 33.4755 734.969
rfemur -369.291 -22.1793 366.078
rtibia 29.0677
rfoot 6.74225 -10.6808
rtoes 13.0294
lfemur -10.9108 3.52846 -19.3357
ltibia 21.7816
lfoot 19.7751 -19.7693
ltoes -15.3298
712
root -0.218221 1.58668 11.5378 -2068.61 -7.91918 190.683
lowerback -4.70995 -0.671343 -5.37397
upperback 3.32719 -0.427303 -4.58995
thorax 6.13081 -0.411249 -1.8368
lowerneck -17.9028 -5.66489 -0.189966
upperneck 8.0865 -8.53188 5.37557
head 5.58584 -3.9069 0.866598
rclavicle -2.22639e-014 -1.5704e-014
rhumerus -59.2205 43.9511 -105.863
rradius 111.874
rwrist -33.5707
rhand 8.61242 7.48351
rfingers 7.12502
rthumb 33.8091 -19.3424
lclavicle -2.22639e-014 -1.5704e-014
lhumerus -63.6342 -65.5126 108.005
lradius 113.31
lwrist 34.9764
lhand 8.16325 -11.9713
lfingers 7.12502
lthumb 33.3822 734.948
rfemur -369.255 -22.2072 366.117
rtibia 29.0759
rfoot 6.59961 -10.7455
rtoes 13.2143
lfemur -10.857 3.55372 -19.2246
ltibia 21.7419
lfoot 19.5666 -19.2942
ltoes -15.4674
713
root -0.214548 1.58472 11.5378 -2068.64 -7.86205 190.605
lowerback -4.67447 -0.637372 -5.34264
upperback 3.35588 -0.387634 -4.58173
thorax 6.14002 -0.391799 -1.84176
lowerneck -17.8757 -5.6655 -0.173853
upperneck 7.96487 -8.5383 5.41338
head 5.54433 -3.91225 0.87777
rclavicle -4.92986e-014 -9.54166e-015
rhumerus -59.2255 43.9676 -105.855
rradius 111.957
rwrist -33.6499
rhand 8.68723 7.414
rfingers 7.12502
rthumb 33.8802 -19.3963
lclavicle -4.92986e-014 -9.54166e-015
lhumerus -63.6271 -65.6061 107.995
lradius 113.29
lwrist 34.8862
lhand 8.06477 -12.0204
lfingers 7.12502
lthumb 33.2886 734.918
rfemur -369.231 -22.2801 366.156
rtibia 29.0871
rfoot 6.49893 -10.7629
rtoes 13.3227
lfemur -10.7944 3.49058 -19.1107
ltibia 21.6893
lfoot 19.2544 -18.7477
ltoes -15.6445
714
root -0.209487 1.58248 11.5386 -2068.66 -7.82089 190.547
lowerback -4.61911 -0.614733 -5.3481
upperback 3.36038 -0.363176 -4.56047
thorax 6.11276 -0.380418 -1.81288
lowerneck -17.8594 -5.66362 -0.195002
upperneck 7.91595 -8.53393 5.44869
head 5.52874 -3.91032 0.893643
rclavicle -4.77083e-015 3.8763e-014
rhumerus -59.2814 43.9884 -105.853
rradius 112.04
rwrist -33.7356
rhand 8.81108 7.33858
rfingers 7.12502
rthumb 33.9978 -19.4457
lclavicle -4.77083e-015 3.8763e-014
lhumerus -63.7074 -65.6545 108.076
lradius 113.281
lwrist 34.8028
lhand 7.98414 -12.0798
lfingers 7.12502
lthumb 33.212 734.875
rfemur -369.215 -22.2566 366.201
rtibia 29.1036
rfoot 6.30799 -10.8537
rtoes 13.4193
lfemur -10.7356 3.46573 -19.0071
ltibia 21.6295
lfoot 19.0174 -18.1851
ltoes -15.3649
715
root -0.20433 1.58009 11.5383 -2068.7 -7.76702 190.475
lowerback -4.56652 -0.589509 -5.33183
upperback 3.39065 -0.335347 -4.5494
thorax 6.1141 -0.367314 -1.80739
lowerneck -17.8578 -5.66028 -0.194305
upperneck 7.82575 -8.53435 5.49619
head 5.50228 -3.91097 0.909638
rclavicle 4.77083e-015 -5.23798e-014
rhumerus -59.2586 44.0052 -105.834
rradius 112.107
rwrist -33.8302
rhand 8.92047 7.2477
rfingers 7.12502
rthumb 34.1017 -19.5134
lclavicle 4.77083e-015 -5.23798e-014
lhumerus -63.6792 -65.7274 108.032
lradius 113.277
lwrist 34.7773
lhand 7.91788 -12.1036
lfingers 7.12502
lthumb 33.1489 734.865
rfemur -369.188 -22.3055 366.243
rtibia 29.126
rfoot 6.17721 -10.9017
rtoes 13.5136
lfemur -10.6387 3.38841 -18.8817
ltibia 21.553
lfoot 18.7964 -17.5223
ltoes -14.9329
716
root -0.19735 1.57792 11.5384 -2068.74 -7.72509 190.4
lowerback -4.50738 -0.558763 -5.35258
upperback 3.41736 -0.298977 -4.52671
thorax 6.10823 -0.351749 -1.76804
lowerneck -17.8623 -5.66277 -0.227799
upperneck 7.75366 -8.53691 5.55805
head 5.48474 -3.91174 0.934704
rclavicle 4.77083e-014 -8.24956e-014
rhumerus -59.2257 44.0363 -105.77
rradius 112.163
rwrist -33.8934
rhand 9.00855 7.21103
rfingers 7.12502
rthumb 34.1854 -19.5314
lclavicle 4.77083e-014 -8.24956e-014
lhumerus -63.664 -65.7993 108.037
lradius 113.257
lwrist 34.7548
lhand 7.84573 -12.1445
lfingers 7.12502
lthumb 33.0803 734.839
rfemur -369.164 -22.3596 366.278
rtibia 29.1558
rfoot 6.04335 -10.9436
rtoes 13.7521
lfemur -10.5341 3.31242 -18.7635
ltibia 21.4635
lfoot 18.6195 -16.8236
ltoes -14.365
717
root -0.188658 1.57564 11.5384 -2068.78 -7.66676 190.295
lowerback -4.42919 -0.523287 -5.3774
upperback 3.42916 -0.258749 -4.4975
thorax 6.07549 -0.333973 -1.71845
lowerneck -17.8201 -5.66104 -0.241861
upperneck 7.66115 -8.53346 5.59989
head 5.45128 -3.9118 0.952744
rclavicle 2.70347e-014 -2.38542e-015
rhumerus -59.2344 44.0593 -105.747
rradius 112.221
rwrist -33.9838
rhand 9.14454 7.13906
rfingers 7.12502
rthumb 34.3145 -19.5743
lclavicle 2.70347e-014 -2.38542e-015
lhumerus -63.683 -65.8477 108.049
lradius 113.246
lwrist 34.7394
lhand 7.80302 -12.1861
lfingers 7.12502
lthumb 33.0397 734.806
rfemur -369.141 -22.2795 366.351
rtibia 29.1877
rfoot 5.81031 -11.0572
rtoes 13.7936
lfemur -10.401 3.26003 -18.6122
ltibia 21.3717
lfoot 18.4874 -16.0675
ltoes -13.4383
